<?xml version="1.0" encoding="utf-8"?>
<!-- Generator: Adobe Illustrator 18.0.0, SVG Export Plug-In . SVG Version: 6.00 Build 0)  -->
<!DOCTYPE svg PUBLIC "-//W3C//DTD SVG 1.1//EN" "http://www.w3.org/Graphics/SVG/1.1/DTD/svg11.dtd">
<svg version="1.1" id="Layer_1" xmlns="http://www.w3.org/2000/svg" xmlns:xlink="http://www.w3.org/1999/xlink" x="0px" y="0px"
	 width="300px" height="300px" viewBox="0 0 300 300" enable-background="new 0 0 300 300" xml:space="preserve">
<path d="M172.1,134.9c-0.2-0.1-2.4,1.1-5.5,2.2c-1.8,0.7-10.6,3-11,3.3c-0.3,0.2-2.6,2.5-3.9,3.5c0,0-0.1,0-0.1,0
	c-0.7-0.4-1.4-1.1-1.4-1.1s0.1-0.6,0.2-0.8c0.1-0.2,0.2-0.6,0.2-0.6s0.5,0.1,1.3-0.2c0.8-0.3,1.3-1.6,1.3-1.6s-1.1-0.3-1.4-0.3
	c-0.4,0-1.2,0.3-1.2,0.3s-0.2,0-0.1-0.2c0.1-0.2,0.4-0.4,1.2-1.1c0.8-0.7,0.1-2.2,0.1-2.4c0-0.2-0.4-1-0.3,0.1
	c0.1,1.1-0.5,1.5-0.8,1.7c-0.3,0.2-0.6,0.5-0.6,0.5s-0.3-0.4-0.7-0.4c-0.4,0-1,0.1-1.2,0.1c-0.2,0-0.8-0.1-1.2-0.1
	c-0.4,0-0.7,0.4-0.7,0.4s-0.3-0.3-0.6-0.5c-0.3-0.2-0.9-0.6-0.8-1.7c0.1-1.1-0.3-0.2-0.3-0.1c0,0.2-0.7,1.6,0.1,2.4
	c0.8,0.7,1.1,0.9,1.2,1.1c0.1,0.2,0,0.2,0,0.2s-0.8-0.3-1.2-0.3c-0.4,0-1.4,0.3-1.4,0.3s0.5,1.3,1.3,1.6c0.8,0.3,1.3,0.2,1.3,0.2
	s0.2,0.4,0.2,0.6c0.1,0.2,0.2,0.8,0.2,0.8c-0.3,0.2-0.7,0.6-1.2,0.9c0,0-0.1,0-0.1,0c-1.3-1-3.5-3.3-3.9-3.5
	c-0.5-0.3-9.2-2.7-11-3.3c-3.1-1.1-5.3-2.3-5.5-2.2c-0.2,0.1-0.4,1.5-0.2,1.8c0.1,0.3,3.6,2.6,7.9,3.6c-1.6,0.3-4-0.2-4.2,0
	c-0.1,0.1,1.2,2,1.4,2.1c0.2,0.2,2.2,0.1,4.8-0.2c-0.9,0.9-3.9,1.2-3.9,1.4c0,0.2,2.2,1.6,2.6,1.7c0.3,0.1,2.7-0.8,3.7-1.6
	c-0.3,1-2.2,2.1-2,2.2c0.1,0.1,1.9,0.7,3.6,0.8c1.1,0.1,3.6,0.4,5.3,0.6l0,0.1c-0.1,0.6,0.1,1.2,0.1,1.4c0,0.3,0.6,1.5,0.6,1.5
	s0.6,1.4,0.7,1.9c0.1,0.5,0,2.1,0,2.1s0.5,1,0.6,1.5c0.1,0.4,0.4,1.5,0.4,1.5s0,2.1,0,2.3c0.2,0.4,0.4,0.6,0.7,0.7c0,0,0,0,0,0
	c0.1,0,0.2,0,0.4,0c0.2,0,0.3-0.1,0.4-0.1c0,0,0.1,0,0.1-0.1c0.2-0.2,0.3-0.6,0.2-1c-0.1-0.7-0.4-0.9-0.5-1.2
	c-0.1-0.2-0.4-1.1-0.5-1.6c0-0.4-0.6-1.9-0.6-2.5c0-0.1,0-0.2,0-0.2l0.2,0.6c0,0,0.9,1.3,0.9,1.3c0,0,0.3,0.6,0.7,0.7
	c0.4,0.1,0.8,0.1,0.8-0.4c0-0.6,0-0.9-0.2-1l-0.3-0.2l-0.8-1.7c0.1-0.1,0.1-0.2,0.2-0.3l0.9-0.4l1.1-0.3c0,0.1,0,0.1,0,0.2
	c0,0.2,0.1,0.4,0,0.6c-0.1,0.2-0.3,0.2-0.7,0.4c-0.1,0.4-0.2,0.7-0.2,0.9c0,0.4,0.4,0.7,0.4,0.7l0.4-0.1c0.1-0.1,0.1,0.2,0.1,0.2
	l-0.1,0.2c0,0,0,0,0,0.4c0,0.4,0.2,1.3,0.2,1.5c0,0.2-0.1,0.5-0.1,0.5s-0.1,0.1-0.2,0.6c-0.1,0.6,0.2,0.9,0.2,0.9
	c0.1,0.1,0.1,0.1,0.2,0.2c0.1,0,0.4,0.1,0.6,0c0.3-0.2,0.5-0.7,0.5-0.9c0-0.2-0.1-0.9-0.3-1.1c-0.1-0.2,0.3-2.3,0.3-2.6
	c0-0.3,0.6-1.1,0.7-1.4c0-0.1,0-0.3,0-0.5c0.1-0.4,0.2-1.1,0.3-1.9c0.2-0.4,0.3-0.8,0.5-1c0.3-0.5,0.1-1.8,0.1-1.8l-0.1-0.2
	c1.6-0.2,4.5-0.6,5.6-0.6c1.7-0.1,3.5-0.7,3.6-0.8c0.1-0.1-1.7-1.2-2-2.2c1,0.8,3.4,1.6,3.7,1.6c0.3-0.1,2.6-1.5,2.6-1.7
	c0-0.2-3-0.5-3.9-1.4c2.6,0.3,4.5,0.4,4.8,0.2c0.2-0.2,1.5-2,1.4-2.1c-0.2-0.2-2.6,0.3-4.2,0c4.3-1,7.8-3.3,7.9-3.6
	C172.5,136.5,172.4,135,172.1,134.9z"/>
</svg>
